# xmcd CD database file
#
# Track frame offsets:
#	150
#	16985
#	30682
#	42777
#	56517
#	68415
#	80172
#	94462
#	108672
#	121992
#	136272
#	150550
#	162765
#	173525
#	185727
#	199017
#	212255
#	225552
#	237365
#	250505
#
# Disc length: 3507 seconds
#
# Revision: 0
# Processed by: cddbd v1.5.1PL0 Copyright (c) Steve Scherf et al.
# Submitted via: CDex 1.51
#
DISCID=fe0db114
DTITLE=Louis Armstrong - Starring Louis Armstrong - Disk 1
DYEAR=1998
DGENRE=Jazz
TTITLE0=Wrap Your Troubles In Dreams
TTITLE1=All Of Me
TTITLE2=La Cucaracha
TTITLE3=Red Sails In The Sunset
TTITLE4=Thanks A Milliion
TTITLE5=Alexander's Ragtime Band
TTITLE6=I've Got A Heartful Of Rhythm
TTITLE7=Once In A While
TTITLE8=On The Sunny Side Of The Street
TTITLE9=Public Melody Number One
TTITLE10=Red Cap
TTITLE11=Sun Showers
TTITLE12=The Old Folks At Home
TTITLE13=Yours And Mine
TTITLE14=Ain't Misbehavin'
TTITLE15=I Can't Give You Anything But Love
TTITLE16=I Double Dare You
TTITLE17=It's Wonderful
TTITLE18=I've Got A Pocketful Of Dreams
TTITLE19=Jonah And The Whale
EXTD=YEAR: 1998
EXTT0=
EXTT1=
EXTT2=
EXTT3=
EXTT4=
EXTT5=
EXTT6=
EXTT7=
EXTT8=
EXTT9=
EXTT10=
EXTT11=
EXTT12=
EXTT13=
EXTT14=
EXTT15=
EXTT16=
EXTT17=
EXTT18=
EXTT19=
PLAYORDER=
